<mxfile host="app.diagrams.net" agent="Mozilla/5.0 (Windows NT 10.0; Win64; x64) AppleWebKit/537.36 (KHTML, like Gecko) Chrome/131.0.0.0 Safari/537.36" version="24.8.8">
  <diagram name="Trang-1" id="jIZoN5Ik8gS6BeCUeAwO">
    <mxGraphModel dx="1050" dy="522" grid="1" gridSize="10" guides="1" tooltips="1" connect="1" arrows="1" fold="1" page="1" pageScale="1" pageWidth="827" pageHeight="1169" math="0" shadow="0">
      <root>
        <mxCell id="0" />
        <mxCell id="1" parent="0" />
        <mxCell id="Ydq_dB2nmq0QEJSagaUk-19" style="edgeStyle=orthogonalEdgeStyle;rounded=0;orthogonalLoop=1;jettySize=auto;html=1;exitX=0.5;exitY=0.5;exitDx=0;exitDy=0;exitPerimeter=0;entryX=0;entryY=0.5;entryDx=0;entryDy=0;" edge="1" parent="1" source="Ydq_dB2nmq0QEJSagaUk-2" target="Ydq_dB2nmq0QEJSagaUk-11">
          <mxGeometry relative="1" as="geometry" />
        </mxCell>
        <mxCell id="Ydq_dB2nmq0QEJSagaUk-23" style="edgeStyle=orthogonalEdgeStyle;rounded=0;orthogonalLoop=1;jettySize=auto;html=1;exitX=0.5;exitY=0.5;exitDx=0;exitDy=0;exitPerimeter=0;entryX=0;entryY=0.5;entryDx=0;entryDy=0;" edge="1" parent="1" source="Ydq_dB2nmq0QEJSagaUk-2" target="Ydq_dB2nmq0QEJSagaUk-12">
          <mxGeometry relative="1" as="geometry">
            <Array as="points">
              <mxPoint x="105" y="325" />
            </Array>
          </mxGeometry>
        </mxCell>
        <mxCell id="Ydq_dB2nmq0QEJSagaUk-24" style="edgeStyle=orthogonalEdgeStyle;rounded=0;orthogonalLoop=1;jettySize=auto;html=1;exitX=0.5;exitY=0.5;exitDx=0;exitDy=0;exitPerimeter=0;entryX=0;entryY=0.5;entryDx=0;entryDy=0;" edge="1" parent="1" source="Ydq_dB2nmq0QEJSagaUk-2" target="Ydq_dB2nmq0QEJSagaUk-10">
          <mxGeometry relative="1" as="geometry">
            <Array as="points">
              <mxPoint x="105" y="105" />
            </Array>
          </mxGeometry>
        </mxCell>
        <mxCell id="Ydq_dB2nmq0QEJSagaUk-2" value="User" style="shape=umlActor;verticalLabelPosition=bottom;verticalAlign=top;html=1;outlineConnect=0;" vertex="1" parent="1">
          <mxGeometry x="90" y="185" width="30" height="60" as="geometry" />
        </mxCell>
        <mxCell id="Ydq_dB2nmq0QEJSagaUk-33" value="" style="edgeStyle=orthogonalEdgeStyle;rounded=0;orthogonalLoop=1;jettySize=auto;html=1;" edge="1" parent="1" source="Ydq_dB2nmq0QEJSagaUk-10" target="Ydq_dB2nmq0QEJSagaUk-28">
          <mxGeometry relative="1" as="geometry" />
        </mxCell>
        <mxCell id="Ydq_dB2nmq0QEJSagaUk-10" value="Sản phẩm" style="rounded=1;whiteSpace=wrap;html=1;" vertex="1" parent="1">
          <mxGeometry x="210" y="80" width="120" height="50" as="geometry" />
        </mxCell>
        <mxCell id="Ydq_dB2nmq0QEJSagaUk-11" value="Liên hệ" style="rounded=1;whiteSpace=wrap;html=1;" vertex="1" parent="1">
          <mxGeometry x="320" y="190" width="110" height="50" as="geometry" />
        </mxCell>
        <mxCell id="Ydq_dB2nmq0QEJSagaUk-12" value="Tra cứu đơn hàng" style="rounded=1;whiteSpace=wrap;html=1;" vertex="1" parent="1">
          <mxGeometry x="260" y="390" width="120" height="50" as="geometry" />
        </mxCell>
        <mxCell id="Ydq_dB2nmq0QEJSagaUk-16" style="edgeStyle=orthogonalEdgeStyle;rounded=0;orthogonalLoop=1;jettySize=auto;html=1;exitX=0.5;exitY=1;exitDx=0;exitDy=0;" edge="1" parent="1" source="Ydq_dB2nmq0QEJSagaUk-12" target="Ydq_dB2nmq0QEJSagaUk-12">
          <mxGeometry relative="1" as="geometry" />
        </mxCell>
        <mxCell id="Ydq_dB2nmq0QEJSagaUk-25" value="Thanh toán" style="rounded=1;whiteSpace=wrap;html=1;" vertex="1" parent="1">
          <mxGeometry x="530" y="245" width="120" height="60" as="geometry" />
        </mxCell>
        <mxCell id="Ydq_dB2nmq0QEJSagaUk-34" value="" style="edgeStyle=orthogonalEdgeStyle;rounded=0;orthogonalLoop=1;jettySize=auto;html=1;" edge="1" parent="1" source="Ydq_dB2nmq0QEJSagaUk-28" target="Ydq_dB2nmq0QEJSagaUk-29">
          <mxGeometry relative="1" as="geometry" />
        </mxCell>
        <mxCell id="Ydq_dB2nmq0QEJSagaUk-28" value="Chi tiết sản phẩm" style="rounded=1;whiteSpace=wrap;html=1;" vertex="1" parent="1">
          <mxGeometry x="370" y="77.5" width="120" height="55" as="geometry" />
        </mxCell>
        <mxCell id="Ydq_dB2nmq0QEJSagaUk-30" style="edgeStyle=orthogonalEdgeStyle;rounded=0;orthogonalLoop=1;jettySize=auto;html=1;entryX=0.5;entryY=0;entryDx=0;entryDy=0;" edge="1" parent="1" source="Ydq_dB2nmq0QEJSagaUk-29" target="Ydq_dB2nmq0QEJSagaUk-25">
          <mxGeometry relative="1" as="geometry" />
        </mxCell>
        <mxCell id="Ydq_dB2nmq0QEJSagaUk-29" value="Giỏ hàng" style="rounded=1;whiteSpace=wrap;html=1;" vertex="1" parent="1">
          <mxGeometry x="530" y="77.5" width="120" height="55" as="geometry" />
        </mxCell>
        <mxCell id="Ydq_dB2nmq0QEJSagaUk-32" value="" style="endArrow=none;dashed=1;html=1;dashPattern=1 3;strokeWidth=2;rounded=0;endFill=0;startArrow=classic;startFill=1;" edge="1" parent="1">
          <mxGeometry width="50" height="50" relative="1" as="geometry">
            <mxPoint x="380" y="415" as="sourcePoint" />
            <mxPoint x="590" y="305" as="targetPoint" />
            <Array as="points">
              <mxPoint x="590" y="415" />
            </Array>
          </mxGeometry>
        </mxCell>
      </root>
    </mxGraphModel>
  </diagram>
</mxfile>
